<?xml version="1.0" standalone="no"?><!DOCTYPE svg PUBLIC "-//W3C//DTD SVG 1.1//EN" "http://www.w3.org/Graphics/SVG/1.1/DTD/svg11.dtd"><svg t="1686285846964" class="icon" viewBox="0 0 1024 1024" version="1.1" xmlns="http://www.w3.org/2000/svg" p-id="2411" xmlns:xlink="http://www.w3.org/1999/xlink" width="200" height="200"><path d="M218 927h14.9v60H218zM158 927h60v60h-60z" p-id="2412"></path><path d="M956.3 185h-94.1V64c0-16.6-13.4-30-30-30H64c-16.6 0-30 13.4-30 30v893c0 16.6 13.4 30 30 30h94v-60H93.9V93.9h708.2V478h60V245h64.1v253.4h60V215c0.1-16.6-13.4-30-29.9-30z" p-id="2413"></path><path d="M960.2 543.1H320.1c-16.6 0-30 13.4-30 30v383.7c0 16.6 13.4 30 30 30h640.1c16.6 0 30-13.4 30-30V573.1c0-16.6-13.4-30-30-30z m-30 383.7H350.1V603.1h580.1v323.7z" p-id="2414"></path><path d="M454.1 795.1h22.7c23.3 0.5 42.8-5.4 58.3-17.7 15.5-12.3 23.3-28.7 23.3-49.1 0-42.1-25.7-63.1-77.2-63.1H440c-16.6 0-30 13.4-30 30v147.5c0 12.2 9.9 22 22 22 12.2 0 22-9.9 22-22l0.1-47.6z m0-97h19.5c25.6 0 38.5 10.6 38.5 31.8 0 21.7-13 32.6-38.9 32.6h-19.1v-64.4zM836.5 868.1c17.8 0 33.2-1.9 46-5.8 7.6-2.3 12.9-9.3 12.9-17.2 0-11.8-11.2-20.4-22.7-17.3-8.8 2.4-18 3.6-27.7 3.6-19.6 0-35.1-6-46.6-17.9-11.5-11.9-17.2-27.7-17.2-47.3 0-20.1 6-36.4 18.2-48.8 12.1-12.5 28.3-18.7 48.5-18.7 8.9 0 17.3 1 25.2 3 11.3 2.8 22.4-5.5 22.4-17.3v-1.5c0-8.4-5.8-15.8-14-17.5-10.7-2.3-23-3.5-36.7-3.5-32.3 0-58.7 10-79.1 30.1-20.4 20-30.7 45.8-30.7 77.3 0 30 9.2 54 27.5 71.9 18.1 17.9 42.9 26.9 74 26.9zM694.7 829.9H633v-149c0-8.7-7-15.7-15.7-15.7h-12.7c-8.7 0-15.7 7-15.7 15.7v153.8c0 16.6 13.4 30 30 30h75.7c8.7 0 15.7-7 15.7-15.7v-3.4c0.1-8.7-6.9-15.7-15.6-15.7zM708.4 252H188.3c-16.6 0-30-13.4-30-30s13.4-30 30-30h520.1c16.6 0 30 13.4 30 30s-13.5 30-30 30zM708.4 445.1H188.3c-16.6 0-30-13.4-30-30s13.4-30 30-30h520.1c16.6 0 30 13.4 30 30s-13.5 30-30 30zM256 638.3h-67.8c-16.6 0-30-13.4-30-30s13.4-30 30-30H256v60zM256 831.5h-67.8c-16.6 0-30-13.4-30-30s13.4-30 30-30H256v60z" p-id="2415"></path></svg>